<svg width="500" height="500" viewBox="0 0 500 500" fill="none" xmlns="http://www.w3.org/2000/svg">
<mask id="mask0_27_886" style="mask-type:luminance" maskUnits="userSpaceOnUse" x="108" y="0" width="313" height="428">
<path d="M108 0H420.375V428H108V0Z" fill="white"/>
</mask>
<g mask="url(#mask0_27_886)">
<path d="M112.073 426.734C111.833 426.734 111.594 426.734 111.438 426.656C109.849 426.26 108.818 424.672 109.214 423.083C111.042 415.307 113.5 407.531 116.516 399.99C117.151 398.484 118.896 397.771 120.406 398.323C121.911 398.958 122.625 400.703 122.073 402.214C119.135 409.516 116.755 416.974 115.01 424.432C114.609 425.865 113.422 426.734 112.073 426.734ZM129.771 382.771C129.214 382.771 128.74 382.609 128.26 382.375C126.833 381.5 126.354 379.755 127.229 378.328C131.354 371.422 135.958 364.677 141.036 358.406C142.068 357.135 143.974 356.901 145.245 357.932C146.516 358.964 146.75 360.865 145.719 362.135C140.88 368.167 136.354 374.677 132.469 381.344C131.755 382.214 130.719 382.771 129.771 382.771ZM159.531 345.786C158.734 345.786 157.943 345.469 157.307 344.833C156.198 343.646 156.276 341.74 157.464 340.63C163.417 335.156 169.844 330.073 176.432 325.552C177.781 324.599 179.609 324.995 180.557 326.344C181.51 327.693 181.115 329.599 179.766 330.474C173.417 334.755 167.229 339.677 161.516 344.995C160.958 345.552 160.245 345.786 159.531 345.786ZM198.813 319.203C197.703 319.203 196.672 318.568 196.115 317.536C195.401 316.026 196.036 314.281 197.542 313.568C198.891 312.932 200.24 312.297 201.672 311.745C207.068 309.359 213.099 307.141 220.083 304.839C221.589 304.359 223.333 305.156 223.813 306.745C224.286 308.328 223.495 309.995 221.906 310.474C215.083 312.693 209.286 314.917 203.969 317.219C202.62 317.776 201.354 318.406 200.083 318.964C199.604 319.125 199.208 319.203 198.813 319.203ZM243.729 303.646C242.458 303.646 241.271 302.776 240.875 301.505C240.396 299.917 241.271 298.25 242.859 297.854C250.953 295.474 258.255 293.333 265.474 290.792C266.984 290.234 268.729 291.109 269.286 292.615C269.839 294.203 268.969 295.87 267.458 296.427C260.156 298.964 252.776 301.109 244.604 303.568C244.286 303.646 244.047 303.646 243.729 303.646ZM288.49 287.536C287.38 287.536 286.349 286.901 285.792 285.87C285.078 284.443 285.635 282.615 287.141 281.901C294.599 278.172 300.87 274.047 306.427 269.286C307.693 268.255 309.521 268.333 310.63 269.604C311.661 270.87 311.583 272.698 310.312 273.807C304.443 278.807 297.776 283.172 289.839 287.219C289.365 287.458 288.885 287.536 288.49 287.536ZM323.885 256.667C323.328 256.667 322.776 256.505 322.297 256.188C320.948 255.318 320.474 253.49 321.344 252.062C325.234 245.953 328.49 239.125 331.188 231.193C331.74 229.604 333.49 228.812 334.995 229.365C336.583 229.922 337.375 231.589 336.823 233.177C333.964 241.51 330.552 248.729 326.344 255.318C325.87 256.193 324.839 256.667 323.885 256.667ZM340.073 212.146C339.917 212.146 339.677 212.146 339.521 212.068C337.932 211.75 336.823 210.161 337.135 208.573C338.172 203.099 339.203 197.068 340.151 189.688L340.708 185.24C340.948 183.573 342.375 182.464 344.042 182.703C345.708 182.943 346.818 184.37 346.583 186.036L346.026 190.557C344.995 198.099 344.042 204.13 342.932 209.766C342.693 211.193 341.422 212.146 340.073 212.146ZM259.76 181.99H259.682H258.49C256.823 181.99 255.557 180.557 255.557 178.974C255.557 177.307 257.063 176.036 258.573 176.036H259.604H259.682C266.667 176.036 274.047 175.323 281.583 173.812C283.25 173.495 284.76 174.526 285.078 176.193C285.396 177.781 284.365 179.37 282.698 179.688C274.839 181.193 267.141 181.99 259.76 181.99ZM235.078 178.656C234.844 178.656 234.526 178.656 234.208 178.578C232.859 178.177 231.51 177.781 230.161 177.307C223.729 175.083 217.62 171.911 211.984 167.859C210.635 166.911 210.318 165.083 211.271 163.734C212.224 162.385 214.13 162.068 215.401 163.021C220.635 166.75 226.193 169.688 232.063 171.672C233.333 172.068 234.526 172.464 235.797 172.859C237.38 173.339 238.255 175.005 237.776 176.594C237.542 177.781 236.349 178.656 235.078 178.656ZM305.078 173.177C303.885 173.177 302.698 172.464 302.297 171.276C301.745 169.766 302.536 168.021 304.047 167.464C311.266 164.766 318.406 161.516 325.234 157.703C326.661 156.911 328.49 157.385 329.281 158.896C330.073 160.323 329.521 162.146 328.089 162.943C320.948 166.911 313.568 170.245 306.109 173.099C305.792 173.099 305.396 173.177 305.078 173.177ZM346.104 164.927C346.026 164.927 345.948 164.927 345.87 164.927C344.203 164.844 343.01 163.417 343.089 161.75C343.406 157.068 343.646 152.547 343.724 148.26C343.484 147.625 343.484 146.833 343.724 146.198C343.724 145.083 343.724 143.974 343.724 142.786C343.724 141.276 343.724 139.688 343.646 138.182C343.646 136.516 344.917 135.167 346.583 135.167H346.661C348.25 135.167 349.599 136.438 349.677 138.104C349.677 139.052 349.677 140.005 349.677 140.958C354.042 137.385 358.328 133.578 362.375 129.531C363.562 128.339 365.391 128.422 366.578 129.531C367.771 130.719 367.771 132.547 366.578 133.734C361.266 139.052 355.547 144.052 349.677 148.578C349.599 152.943 349.359 157.385 349.042 162.146C348.964 163.734 347.693 164.927 346.104 164.927ZM196.828 151.75C195.953 151.75 195.005 151.354 194.448 150.562C189.526 144.052 185.557 136.75 182.625 129.052C182.068 127.547 182.781 125.802 184.37 125.245C185.875 124.688 187.625 125.406 188.177 126.99C190.958 134.214 194.604 140.958 199.208 147.068C200.161 148.417 199.922 150.245 198.573 151.198C198.021 151.516 197.385 151.75 196.828 151.75ZM344.833 117.469C343.406 117.469 342.135 116.438 341.901 114.927C341.188 110.167 340.234 105.484 339.12 101.042C338.406 98.1042 337.536 95.1667 336.583 92.3125C336.026 90.724 336.901 89.0573 338.484 88.5833C340.073 88.026 341.74 88.8958 342.219 90.4844C343.25 93.5 344.12 96.5938 344.917 99.6927C346.104 104.375 347.057 109.214 347.849 114.214C348.089 115.802 346.979 117.391 345.312 117.625C345.151 117.469 344.995 117.469 344.833 117.469ZM380.307 116.833C379.677 116.833 379.042 116.594 378.484 116.198C377.214 115.167 376.896 113.344 377.927 111.99C382.693 105.802 387.057 99.2969 390.943 92.5469C391.74 91.1198 393.562 90.6458 394.99 91.4375C396.422 92.2292 396.896 94.0573 396.104 95.4844C392.057 102.391 387.531 109.135 382.609 115.562C382.057 116.438 381.182 116.833 380.307 116.833ZM180.161 107.786C178.656 107.786 177.307 106.594 177.224 105.01C177.068 102.943 176.99 100.964 176.99 98.8958C176.99 92.5469 177.781 86.3594 179.292 80.4062C179.688 78.8177 181.354 77.8646 182.943 78.2656C184.526 78.6615 185.479 80.25 185.083 81.9167C183.734 87.3906 183.021 93.1042 183.021 98.8958C183.021 100.802 183.099 102.708 183.26 104.531C183.417 106.198 182.146 107.625 180.479 107.708C180.24 107.786 180.161 107.786 180.161 107.786ZM404.198 75.724C403.802 75.724 403.406 75.6458 403.089 75.4844C401.578 74.849 400.865 73.1042 401.5 71.599C404.516 64.375 407.052 56.9167 408.958 49.4583C409.354 47.8698 410.943 46.9167 412.609 47.3125C414.198 47.7083 415.151 49.375 414.75 50.9635C412.688 58.6615 410.151 66.3594 406.974 73.901C406.422 75.0885 405.307 75.724 404.198 75.724ZM329.755 72.5521C328.724 72.5521 327.693 71.9948 327.141 71.0417C323.172 64.1354 318.646 57.8698 313.568 52.3906C312.458 51.2031 312.536 49.2969 313.724 48.1875C314.917 47.0729 316.823 47.1563 317.932 48.3438C323.328 54.1406 328.172 60.8021 332.375 68.1042C333.172 69.5365 332.693 71.3594 331.266 72.151C330.786 72.4688 330.234 72.5521 329.755 72.5521ZM191.828 62.5521C191.271 62.5521 190.641 62.3906 190.161 61.9948C188.813 61.0417 188.417 59.2188 189.37 57.8698C193.891 51.2031 199.604 45.1719 206.271 40.0104C207.542 38.9792 209.448 39.2188 210.479 40.5677C211.51 41.8385 211.271 43.7396 209.922 44.776C203.734 49.6146 198.495 55.1719 194.286 61.2812C193.734 62.1562 192.781 62.5521 191.828 62.5521ZM297.458 38.2656C296.901 38.2656 296.427 38.1094 295.87 37.8698C293.25 36.2812 290.474 34.776 287.698 33.5833C283.651 31.7604 279.286 30.3281 274.839 29.2969C273.255 28.9792 272.219 27.3125 272.536 25.7292C272.938 24.1406 274.443 23.1094 276.109 23.4271C280.953 24.5365 285.714 26.0469 290.156 28.0312C293.172 29.3802 296.109 30.9635 298.964 32.7135C300.396 33.5833 300.792 35.4115 299.995 36.8385C299.443 37.7917 298.411 38.2656 297.458 38.2656ZM228.729 33.5833C227.542 33.5833 226.432 32.8698 225.953 31.6771C225.318 30.1719 226.115 28.4271 227.62 27.7917C235.396 24.6979 243.411 22.7917 251.51 21.9948C253.255 21.8385 254.604 23.0312 254.76 24.6979C254.922 26.3646 253.729 27.7917 252.063 27.9479C244.526 28.6615 237.063 30.4896 229.844 33.3438C229.448 33.5833 229.13 33.5833 228.729 33.5833ZM416.182 29.8542C416.099 29.8542 415.943 29.8542 415.865 29.8542C414.198 29.6979 413.083 28.1875 413.245 26.5208C413.88 20.7292 414.276 14.8542 414.276 9.0625C414.276 7.07813 414.276 5.09375 414.198 3.1875C414.12 1.52083 415.385 0.171875 417.052 0.09375C418.719 0.255208 420.068 1.28646 420.151 2.95313C420.229 5.01563 420.229 7 420.229 9.0625C420.229 15.0938 419.911 21.2031 419.198 27.1562C418.958 28.7448 417.688 29.8542 416.182 29.8542Z" fill="#B87C4C"/>
</g>
<mask id="mask1_27_886" style="mask-type:luminance" maskUnits="userSpaceOnUse" x="79" y="418" width="76" height="82">
<path d="M79.375 418.667H154.667V500H79.375V418.667Z" fill="white"/>
</mask>
<g mask="url(#mask1_27_886)">
<path d="M154.609 431.578L98.1823 499.589L79.1354 418.719L109.771 441.578L154.609 431.578Z" fill="#B87C4C"/>
</g>
</svg>
