<svg width="500" height="135" viewBox="0 0 500 135" fill="none" xmlns="http://www.w3.org/2000/svg">
<g clip-path="url(#clip0_10_184)">
<path d="M8.70315 70.9116H490.661C491.432 70.9116 492.057 71.4272 492.057 72.0627C492.057 72.6981 491.432 73.2137 490.661 73.2137H8.70315C7.93231 73.2137 7.30731 72.6981 7.30731 72.0627C7.30731 71.4272 7.93231 70.9116 8.70315 70.9116Z" fill="#B87C4C"/>
<path d="M249.682 116.724C252.37 116.724 253.724 114.37 253.724 109.734C253.724 105.651 251.13 100.63 249.682 98.1355C248.234 100.63 245.635 105.656 245.635 109.734C245.635 114.37 247 116.724 249.682 116.724ZM249.682 94.7917C250.063 94.7917 250.422 94.9845 250.635 95.3022C250.859 95.6303 256.026 103.401 256.026 109.734C256.026 117.813 252.052 119.021 249.682 119.021C247.313 119.021 243.339 117.813 243.339 109.734C243.339 103.401 248.505 95.6303 248.729 95.3022C248.943 94.9845 249.297 94.7917 249.682 94.7917Z" fill="#B87C4C"/>
<path d="M293.693 70.9116C293.953 70.9116 294.213 71.0002 294.427 71.1772C298.979 74.9637 302.042 80.0262 303.052 85.4325C305.219 97.1304 297.792 109.542 286.495 113.11C275.245 116.656 261.844 110.521 257.229 99.7241C255.338 95.2762 254.963 90.5158 256.193 86.3179C257.542 81.6877 261 77.8335 265.198 76.2606C268.531 75.0054 272.443 75.2866 275.927 77.0366C279.411 78.7814 281.979 81.745 282.974 85.172C284.172 89.3022 283.167 93.8283 280.401 96.7137C277.354 99.8804 272.349 100.703 268.75 98.6147C266.849 97.5002 265.448 95.547 264.911 93.2606C264.406 91.1095 264.734 88.995 265.838 87.3022C266.182 86.7658 266.896 86.62 267.427 86.9637C267.963 87.3179 268.109 88.0262 267.766 88.5627C267.005 89.7189 266.786 91.1981 267.151 92.7397C267.542 94.3908 268.573 95.8439 269.911 96.6252C272.568 98.172 276.448 97.5054 278.74 95.12C280.943 92.8231 281.74 89.172 280.766 85.8127C279.948 83.0002 277.807 80.5522 274.896 79.0939C271.979 77.6304 268.745 77.3856 266.01 78.4116C262.469 79.7397 259.552 83.0158 258.401 86.9637C257.323 90.646 257.661 94.8595 259.349 98.8231C263.516 108.578 275.63 114.125 285.802 110.917C295.854 107.745 302.719 96.2658 300.792 85.8543C299.88 80.9689 297.099 76.3856 292.953 72.9481C292.469 72.5418 292.401 71.8179 292.807 71.3283C293.036 71.0522 293.359 70.9116 293.693 70.9116Z" fill="#B87C4C"/>
<path d="M308.12 90.8281C308.693 90.8281 309.198 91.2552 309.26 91.849C310.25 100.734 304.146 110.099 297.604 114.755C290.969 119.479 278.458 121.958 270.396 118.115C269.828 117.849 269.578 117.161 269.849 116.589C270.13 116.01 270.813 115.771 271.385 116.042C278.609 119.479 290.297 117.141 296.276 112.885C302.125 108.719 307.859 100.021 306.979 92.1042C306.901 91.4687 307.354 90.901 307.99 90.8333C308.031 90.8333 308.073 90.8281 308.12 90.8281Z" fill="#B87C4C"/>
<path d="M254.182 71.2501C251.641 73.8283 249.713 76.9376 248.568 80.3751C248.37 80.9637 248.797 81.6303 249.37 81.7866C249.995 81.9585 250.588 81.5783 250.781 80.9845C251.802 77.9376 253.547 75.1668 255.807 72.8751C256.849 71.8178 255.224 70.1928 254.182 71.2501Z" fill="#B87C4C"/>
<path d="M330.557 70.9116C330.646 70.9116 330.734 70.922 330.818 70.9429C334.839 71.87 338.026 73.37 340.568 75.5418C345.635 79.8804 347.818 87.0939 346.016 93.5002C344.24 99.896 338.63 104.938 332.068 106.047C325.536 107.167 318.562 104.271 314.719 98.8491C312.25 95.3752 311.281 91.0939 312.151 87.4116C313.115 83.1877 316.562 79.7918 320.536 79.1564C324.901 78.4637 329.464 81.4637 330.292 85.5679C330.724 87.7554 330.005 90.1252 328.375 91.9168C326.854 93.5835 324.839 94.4168 322.823 94.2085C322.187 94.1408 321.729 93.5731 321.797 92.9481C321.865 92.3179 322.427 91.8543 323.057 91.9168C324.344 92.0627 325.651 91.4897 326.672 90.37C327.802 89.1304 328.328 87.4689 328.036 86.0262C327.448 83.1252 324.042 80.9377 320.896 81.4325C317.828 81.9168 315.151 84.5887 314.385 87.9272C313.672 90.9845 314.5 94.5679 316.599 97.521C319.937 102.245 326 104.75 331.687 103.781C337.297 102.833 342.276 98.3491 343.802 92.8804C345.344 87.4064 343.401 80.995 339.073 77.2918C336.818 75.3647 333.953 74.021 330.302 73.1825C329.682 73.0418 329.297 72.4272 329.443 71.8075C329.562 71.2762 330.036 70.9116 330.557 70.9116Z" fill="#B87C4C"/>
<path d="M205.672 70.9116C206.005 70.9116 206.333 71.0522 206.557 71.3283C206.964 71.8179 206.901 72.5418 206.412 72.9481C202.266 76.3856 199.484 80.9689 198.573 85.8543C196.646 96.2658 203.51 107.745 213.563 110.922C223.734 114.12 235.844 108.583 240.016 98.8231C241.708 94.8595 242.042 90.646 240.964 86.9637C239.813 83.0158 236.896 79.7397 233.359 78.4116C230.62 77.3856 227.38 77.6304 224.469 79.0939C221.552 80.5522 219.412 83.0002 218.599 85.8127C217.625 89.172 218.417 92.8231 220.625 95.12C222.917 97.5106 226.797 98.172 229.458 96.62C230.792 95.8439 231.823 94.3908 232.214 92.7397C232.578 91.1981 232.359 89.7189 231.599 88.5627C231.25 88.0262 231.401 87.3179 231.938 86.9637C232.469 86.62 233.182 86.7658 233.526 87.3022C234.63 88.995 234.958 91.1095 234.448 93.2658C233.912 95.547 232.516 97.5002 230.62 98.6147C227.021 100.703 222.01 99.8856 218.964 96.7137C216.203 93.8283 215.188 89.3022 216.391 85.172C217.385 81.745 219.953 78.7814 223.438 77.0366C226.922 75.2866 230.828 75.0106 234.162 76.2606C238.365 77.8335 241.818 81.6877 243.172 86.3179C244.401 90.5158 244.031 95.2762 242.13 99.7241C237.521 110.521 224.115 116.646 212.87 113.11C201.573 109.542 194.141 97.1304 196.307 85.4377C197.323 80.0262 200.391 74.9637 204.938 71.1772C205.151 71.0002 205.412 70.9116 205.672 70.9116Z" fill="#B87C4C"/>
<path d="M191.245 90.8281C191.292 90.8281 191.333 90.8333 191.375 90.8333C192.01 90.901 192.464 91.4687 192.385 92.1042C191.505 100.021 197.24 108.719 203.089 112.885C209.068 117.135 220.76 119.479 227.979 116.042C228.552 115.771 229.24 116.01 229.51 116.589C229.786 117.161 229.542 117.849 228.964 118.115C220.906 121.958 208.396 119.479 201.755 114.755C195.214 110.099 189.115 100.734 190.109 91.849C190.167 91.2552 190.672 90.8281 191.245 90.8281Z" fill="#B87C4C"/>
<path d="M250.781 80.3752C249.802 76.9481 247.667 73.7658 245.188 71.2502C244.146 70.1981 242.516 71.8179 243.557 72.8752C245.766 75.1148 247.693 77.9429 248.568 80.9846C248.74 81.5835 249.375 81.9533 249.984 81.7867C250.578 81.6252 250.958 80.969 250.781 80.3752Z" fill="#B87C4C"/>
<path d="M168.807 70.9116C169.328 70.9116 169.802 71.2762 169.922 71.8075C170.063 72.4272 169.682 73.0418 169.063 73.1825C165.412 74.021 162.547 75.3647 160.292 77.2918C155.964 80.995 154.021 87.4064 155.563 92.8752C157.089 98.3491 162.068 102.833 167.677 103.781C173.365 104.75 179.422 102.24 182.771 97.521C184.865 94.5679 185.693 90.9845 184.979 87.9325C184.214 84.5887 181.531 81.9168 178.469 81.4325C175.318 80.9325 171.917 83.12 171.323 86.0262C171.042 87.4689 171.563 89.1304 172.693 90.37C173.714 91.4897 175.021 92.0575 176.307 91.9168C176.932 91.8543 177.5 92.3179 177.568 92.9481C177.635 93.5731 177.177 94.1408 176.542 94.2085C174.537 94.4168 172.51 93.5835 170.99 91.9168C169.354 90.1252 168.641 87.7554 169.073 85.5783C169.906 81.4585 174.464 78.4533 178.828 79.1564C182.802 79.7918 186.25 83.1877 187.214 87.4168C188.078 91.0939 187.115 95.3752 184.641 98.8543C180.802 104.271 173.828 107.167 167.292 106.047C160.734 104.938 155.13 99.896 153.349 93.495C151.542 87.0939 153.734 79.8804 158.797 75.5418C161.339 73.37 164.531 71.87 168.547 70.9429C168.635 70.922 168.719 70.9116 168.807 70.9116Z" fill="#B87C4C"/>
<path d="M147.812 71.7605C147.078 76.8959 145.797 82.2657 142.401 86.349C139.552 89.7709 135.057 92.3074 130.49 91.4428C126.234 90.6355 122.719 87.1303 123.271 82.5886C123.526 80.4897 124.693 78.6199 126.589 77.6355C128.495 76.6407 130.964 76.7136 132.687 78.073C134.37 79.4167 134.885 82.1042 133.474 83.8386C132.24 85.3386 129.542 85.2917 128.479 83.6251C127.687 82.3803 125.698 83.5313 126.495 84.7865C127.823 86.8647 130.521 87.7136 132.849 86.9272C135.323 86.0938 136.755 83.5469 136.568 80.9897C136.365 78.2084 134.51 76.0105 131.911 75.0886C129.068 74.0886 125.833 74.9011 123.641 76.9219C119.51 80.7344 120.344 87.724 124.505 91.1355C129.146 94.9272 135.672 94.5417 140.458 91.2188C146.656 86.9219 149.01 79.4949 150.026 72.3699C150.115 71.7501 149.875 71.1407 149.224 70.9532C148.687 70.7969 147.896 71.1459 147.812 71.7605Z" fill="#B87C4C"/>
<path d="M144.292 100.933C143.714 102.209 142.839 103.891 141.255 104.016C139.714 104.141 139.276 102.636 139.76 101.401C140.375 99.8232 141.839 98.4742 142.995 97.2919C144.328 95.9273 145.766 94.6565 147.292 93.5211C146.714 93.193 146.141 92.8596 145.562 92.5315C145.828 95.3857 145.448 98.2919 144.292 100.933C144.047 101.5 144.125 102.167 144.703 102.511C145.193 102.792 146.031 102.667 146.281 102.094C147.599 99.0784 148.167 95.8128 147.859 92.5315C147.792 91.7659 146.901 90.9638 146.135 91.5367C144.589 92.6878 143.115 93.9273 141.75 95.2815C140.474 96.5523 139.13 97.9117 138.182 99.4586C137.255 100.959 136.87 102.922 137.797 104.526C138.698 106.078 140.578 106.604 142.255 106.162C144.224 105.641 145.479 103.86 146.281 102.094C146.536 101.532 146.443 100.86 145.87 100.521C145.375 100.235 144.547 100.365 144.292 100.933Z" fill="#B87C4C"/>
<path d="M370.885 83.6252C369.964 85.0679 367.719 85.3283 366.38 84.3127C364.875 83.172 364.74 80.8074 365.641 79.2606C366.698 77.4637 369 76.6877 370.995 77.0262C373.193 77.396 375.036 78.9949 375.745 81.0991C377.182 85.3543 374.583 89.5887 370.49 91.0106C366.099 92.5366 361.438 90.8335 358.208 87.6877C353.911 83.521 352.37 77.4949 351.552 71.7606C351.344 70.297 349.13 70.9168 349.333 72.3699C350.24 78.7293 352.156 85.4116 357.135 89.8283C361.5 93.7085 367.844 95.2866 373.146 92.3179C377.927 89.6408 380.135 83.2397 377 78.4533C375.417 76.0418 372.552 74.4949 369.646 74.6668C366.87 74.8335 364.224 76.4064 363.203 79.0679C362.203 81.6929 363.021 85.146 365.609 86.5418C368.078 87.8699 371.344 87.1772 372.865 84.7866C373.667 83.5314 371.677 82.3752 370.885 83.6252Z" fill="#B87C4C"/>
<path d="M352.073 93.5209C353.688 94.724 355.193 96.0678 356.589 97.5209C357.297 98.2553 357.99 99.0053 358.625 99.8073C359.13 100.443 359.651 101.203 359.781 102.026C359.875 102.63 359.76 103.375 359.234 103.755C358.703 104.151 357.912 104.073 357.339 103.818C355.771 103.109 355.01 100.984 354.521 99.474C353.802 97.224 353.583 94.8803 353.802 92.5313C353.859 91.9115 353.229 91.3803 352.656 91.3803C351.984 91.3803 351.563 91.9115 351.5 92.5313C351.26 95.099 351.537 97.7344 352.344 100.188C353.042 102.328 354.156 104.885 356.339 105.875C358.526 106.859 361.266 106.089 361.948 103.609C362.625 101.162 361.031 99.0521 359.521 97.3178C357.641 95.1667 355.526 93.2448 353.229 91.5365C352.734 91.1667 351.948 91.4532 351.662 91.948C351.318 92.5365 351.573 93.1511 352.073 93.5209Z" fill="#B87C4C"/>
<path d="M249.682 116.724C252.37 116.724 253.724 114.37 253.724 109.734C253.724 105.651 251.13 100.63 249.682 98.1355C248.234 100.63 245.635 105.656 245.635 109.734C245.635 114.37 247 116.724 249.682 116.724ZM249.682 94.7917C250.063 94.7917 250.422 94.9845 250.635 95.3022C250.859 95.6303 256.026 103.401 256.026 109.734C256.026 117.813 252.052 119.021 249.682 119.021C247.313 119.021 243.339 117.813 243.339 109.734C243.339 103.401 248.505 95.6303 248.729 95.3022C248.943 94.9845 249.297 94.7917 249.682 94.7917Z" fill="#B87C4C"/>
<path d="M293.693 70.9116C293.953 70.9116 294.213 71.0002 294.427 71.1772C298.979 74.9637 302.042 80.0262 303.052 85.4325C305.219 97.1304 297.792 109.542 286.495 113.11C275.245 116.656 261.844 110.521 257.229 99.7241C255.338 95.2762 254.963 90.5158 256.193 86.3179C257.542 81.6877 261 77.8335 265.198 76.2606C268.531 75.0054 272.443 75.2866 275.927 77.0366C279.411 78.7814 281.979 81.745 282.974 85.172C284.172 89.3022 283.167 93.8283 280.401 96.7137C277.354 99.8804 272.349 100.703 268.75 98.6147C266.849 97.5002 265.448 95.547 264.911 93.2606C264.406 91.1095 264.734 88.995 265.838 87.3022C266.182 86.7658 266.896 86.62 267.427 86.9637C267.963 87.3179 268.109 88.0262 267.766 88.5627C267.005 89.7189 266.786 91.1981 267.151 92.7397C267.542 94.3908 268.573 95.8439 269.911 96.6252C272.568 98.172 276.448 97.5054 278.74 95.12C280.943 92.8231 281.74 89.172 280.766 85.8127C279.948 83.0002 277.807 80.5522 274.896 79.0939C271.979 77.6304 268.745 77.3856 266.01 78.4116C262.469 79.7397 259.552 83.0158 258.401 86.9637C257.323 90.646 257.661 94.8595 259.349 98.8231C263.516 108.578 275.63 114.125 285.802 110.917C295.854 107.745 302.719 96.2658 300.792 85.8543C299.88 80.9689 297.099 76.3856 292.953 72.9481C292.469 72.5418 292.401 71.8179 292.807 71.3283C293.036 71.0522 293.359 70.9116 293.693 70.9116Z" fill="#B87C4C"/>
<path d="M308.12 90.8281C308.693 90.8281 309.198 91.2552 309.26 91.849C310.25 100.734 304.146 110.099 297.604 114.755C290.969 119.479 278.458 121.958 270.396 118.115C269.828 117.849 269.578 117.161 269.849 116.589C270.13 116.01 270.813 115.771 271.385 116.042C278.609 119.479 290.297 117.141 296.276 112.885C302.125 108.719 307.859 100.021 306.979 92.1042C306.901 91.4687 307.354 90.901 307.99 90.8333C308.031 90.8333 308.073 90.8281 308.12 90.8281Z" fill="#B87C4C"/>
<path d="M330.557 70.9116C330.646 70.9116 330.734 70.922 330.818 70.9429C334.839 71.87 338.026 73.37 340.568 75.5418C345.635 79.8804 347.818 87.0939 346.016 93.5002C344.24 99.896 338.63 104.938 332.068 106.047C325.536 107.167 318.562 104.271 314.719 98.8491C312.25 95.3752 311.281 91.0939 312.151 87.4116C313.115 83.1877 316.562 79.7918 320.536 79.1564C324.901 78.4637 329.464 81.4637 330.292 85.5679C330.724 87.7554 330.005 90.1252 328.375 91.9168C326.854 93.5835 324.839 94.4168 322.823 94.2085C322.187 94.1408 321.729 93.5731 321.797 92.9481C321.865 92.3179 322.427 91.8543 323.057 91.9168C324.344 92.0627 325.651 91.4897 326.672 90.37C327.802 89.1304 328.328 87.4689 328.036 86.0262C327.448 83.1252 324.042 80.9377 320.896 81.4325C317.828 81.9168 315.151 84.5887 314.385 87.9272C313.672 90.9845 314.5 94.5679 316.599 97.521C319.937 102.245 326 104.75 331.687 103.781C337.297 102.833 342.276 98.3491 343.802 92.8804C345.344 87.4064 343.401 80.995 339.073 77.2918C336.818 75.3647 333.953 74.021 330.302 73.1825C329.682 73.0418 329.297 72.4272 329.443 71.8075C329.562 71.2762 330.036 70.9116 330.557 70.9116Z" fill="#B87C4C"/>
<path d="M205.672 70.9116C206.005 70.9116 206.333 71.0522 206.557 71.3283C206.964 71.8179 206.901 72.5418 206.412 72.9481C202.266 76.3856 199.484 80.9689 198.573 85.8543C196.646 96.2658 203.51 107.745 213.563 110.922C223.734 114.12 235.844 108.583 240.016 98.8231C241.708 94.8595 242.042 90.646 240.964 86.9637C239.813 83.0158 236.896 79.7397 233.359 78.4116C230.62 77.3856 227.38 77.6304 224.469 79.0939C221.552 80.5522 219.412 83.0002 218.599 85.8127C217.625 89.172 218.417 92.8231 220.625 95.12C222.917 97.5106 226.797 98.172 229.458 96.62C230.792 95.8439 231.823 94.3908 232.214 92.7397C232.578 91.1981 232.359 89.7189 231.599 88.5627C231.25 88.0262 231.401 87.3179 231.938 86.9637C232.469 86.62 233.182 86.7658 233.526 87.3022C234.63 88.995 234.958 91.1095 234.448 93.2658C233.912 95.547 232.516 97.5002 230.62 98.6147C227.021 100.703 222.01 99.8856 218.964 96.7137C216.203 93.8283 215.188 89.3022 216.391 85.172C217.385 81.745 219.953 78.7814 223.438 77.0366C226.922 75.2866 230.828 75.0106 234.162 76.2606C238.365 77.8335 241.818 81.6877 243.172 86.3179C244.401 90.5158 244.031 95.2762 242.13 99.7241C237.521 110.521 224.115 116.646 212.87 113.11C201.573 109.542 194.141 97.1304 196.307 85.4377C197.323 80.0262 200.391 74.9637 204.938 71.1772C205.151 71.0002 205.412 70.9116 205.672 70.9116Z" fill="#B87C4C"/>
<path d="M191.245 90.8281C191.292 90.8281 191.333 90.8333 191.375 90.8333C192.01 90.901 192.464 91.4687 192.385 92.1042C191.505 100.021 197.24 108.719 203.089 112.885C209.068 117.135 220.76 119.479 227.979 116.042C228.552 115.771 229.24 116.01 229.51 116.589C229.786 117.161 229.542 117.849 228.964 118.115C220.906 121.958 208.396 119.479 201.755 114.755C195.214 110.099 189.115 100.734 190.109 91.849C190.167 91.2552 190.672 90.8281 191.245 90.8281Z" fill="#B87C4C"/>
<path d="M168.807 70.9116C169.328 70.9116 169.802 71.2762 169.922 71.8075C170.063 72.4272 169.682 73.0418 169.063 73.1825C165.412 74.021 162.547 75.3647 160.292 77.2918C155.964 80.995 154.021 87.4064 155.563 92.8752C157.089 98.3491 162.068 102.833 167.677 103.781C173.365 104.75 179.422 102.24 182.771 97.521C184.865 94.5679 185.693 90.9845 184.979 87.9325C184.214 84.5887 181.531 81.9168 178.469 81.4325C175.318 80.9325 171.917 83.12 171.323 86.0262C171.042 87.4689 171.563 89.1304 172.693 90.37C173.714 91.4897 175.021 92.0575 176.307 91.9168C176.932 91.8543 177.5 92.3179 177.568 92.9481C177.635 93.5731 177.177 94.1408 176.542 94.2085C174.537 94.4168 172.51 93.5835 170.99 91.9168C169.354 90.1252 168.641 87.7554 169.073 85.5783C169.906 81.4585 174.464 78.4533 178.828 79.1564C182.802 79.7918 186.25 83.1877 187.214 87.4168C188.078 91.0939 187.115 95.3752 184.641 98.8543C180.802 104.271 173.828 107.167 167.292 106.047C160.734 104.938 155.13 99.896 153.349 93.495C151.542 87.0939 153.734 79.8804 158.797 75.5418C161.339 73.37 164.531 71.87 168.547 70.9429C168.635 70.922 168.719 70.9116 168.807 70.9116Z" fill="#B87C4C"/>
<path d="M147.812 71.7605C147.078 76.8959 145.797 82.2657 142.401 86.349C139.552 89.7709 135.057 92.3074 130.49 91.4428C126.234 90.6355 122.719 87.1303 123.271 82.5886C123.526 80.4897 124.693 78.6199 126.589 77.6355C128.495 76.6407 130.964 76.7136 132.687 78.073C134.37 79.4167 134.885 82.1042 133.474 83.8386C132.24 85.3386 129.542 85.2917 128.479 83.6251C127.687 82.3803 125.698 83.5313 126.495 84.7865C127.823 86.8647 130.521 87.7136 132.849 86.9272C135.323 86.0938 136.755 83.5469 136.568 80.9897C136.365 78.2084 134.51 76.0105 131.911 75.0886C129.068 74.0886 125.833 74.9011 123.641 76.9219C119.51 80.7344 120.344 87.724 124.505 91.1355C129.146 94.9272 135.672 94.5417 140.458 91.2188C146.656 86.9219 149.01 79.4949 150.026 72.3699C150.115 71.7501 149.875 71.1407 149.224 70.9532C148.687 70.7969 147.896 71.1459 147.812 71.7605Z" fill="#B87C4C"/>
<path d="M144.292 100.933C143.714 102.209 142.839 103.891 141.255 104.016C139.714 104.141 139.276 102.636 139.76 101.401C140.375 99.8232 141.839 98.4742 142.995 97.2919C144.328 95.9273 145.766 94.6565 147.292 93.5211C146.714 93.193 146.141 92.8596 145.562 92.5315C145.828 95.3857 145.448 98.2919 144.292 100.933C144.047 101.5 144.125 102.167 144.703 102.511C145.193 102.792 146.031 102.667 146.281 102.094C147.599 99.0784 148.167 95.8128 147.859 92.5315C147.792 91.7659 146.901 90.9638 146.135 91.5367C144.589 92.6878 143.115 93.9273 141.75 95.2815C140.474 96.5523 139.13 97.9117 138.182 99.4586C137.255 100.959 136.87 102.922 137.797 104.526C138.698 106.078 140.578 106.604 142.255 106.162C144.224 105.641 145.479 103.86 146.281 102.094C146.536 101.532 146.443 100.86 145.87 100.521C145.375 100.235 144.547 100.365 144.292 100.933Z" fill="#B87C4C"/>
<path d="M370.885 83.6252C369.964 85.0679 367.719 85.3283 366.38 84.3127C364.875 83.172 364.74 80.8074 365.641 79.2606C366.698 77.4637 369 76.6877 370.995 77.0262C373.193 77.396 375.036 78.9949 375.745 81.0991C377.182 85.3543 374.583 89.5887 370.49 91.0106C366.099 92.5366 361.438 90.8335 358.208 87.6877C353.911 83.521 352.37 77.4949 351.552 71.7606C351.344 70.297 349.13 70.9168 349.333 72.3699C350.24 78.7293 352.156 85.4116 357.135 89.8283C361.5 93.7085 367.844 95.2866 373.146 92.3179C377.927 89.6408 380.135 83.2397 377 78.4533C375.417 76.0418 372.552 74.4949 369.646 74.6668C366.87 74.8335 364.224 76.4064 363.203 79.0679C362.203 81.6929 363.021 85.146 365.609 86.5418C368.078 87.8699 371.344 87.1772 372.865 84.7866C373.667 83.5314 371.677 82.3752 370.885 83.6252Z" fill="#B87C4C"/>
<path d="M352.073 93.5209C353.688 94.724 355.193 96.0678 356.589 97.5209C357.297 98.2553 357.99 99.0053 358.625 99.8073C359.13 100.443 359.651 101.203 359.781 102.026C359.875 102.63 359.76 103.375 359.234 103.755C358.703 104.151 357.912 104.073 357.339 103.818C355.771 103.109 355.01 100.984 354.521 99.474C353.802 97.224 353.583 94.8803 353.802 92.5313C353.859 91.9115 353.229 91.3803 352.656 91.3803C351.984 91.3803 351.563 91.9115 351.5 92.5313C351.26 95.099 351.537 97.7344 352.344 100.188C353.042 102.328 354.156 104.885 356.339 105.875C358.526 106.859 361.266 106.089 361.948 103.609C362.625 101.162 361.031 99.0521 359.521 97.3178C357.641 95.1667 355.526 93.2448 353.229 91.5365C352.734 91.1667 351.948 91.4532 351.662 91.948C351.318 92.5365 351.573 93.1511 352.073 93.5209Z" fill="#B87C4C"/>
<path d="M249.583 27.1929C246.896 27.1929 245.542 29.547 245.542 34.1825C245.542 38.2658 248.135 43.2918 249.583 45.7762C251.031 43.2866 253.63 38.2606 253.63 34.1825C253.63 29.547 252.271 27.1929 249.583 27.1929ZM249.583 49.1252C249.203 49.1252 248.844 48.9325 248.63 48.6147C248.406 48.2866 243.24 40.5158 243.24 34.1825C243.24 26.0991 247.213 24.896 249.583 24.896C251.958 24.896 255.932 26.0991 255.932 34.1825C255.932 40.5158 250.76 48.2866 250.542 48.6147C250.323 48.9325 249.969 49.1252 249.583 49.1252Z" fill="#B87C4C"/>
<path d="M205.578 73.0055C205.318 73.0055 205.057 72.917 204.839 72.7399C200.287 68.9534 197.224 63.8961 196.214 58.4847C194.047 46.7868 201.479 34.3701 212.776 30.8076C224.021 27.2659 237.422 33.3961 242.031 44.1878C243.932 48.6461 244.302 53.4066 243.073 57.5993C241.724 62.2295 238.266 66.0836 234.068 67.6566C230.734 68.9118 226.828 68.6305 223.339 66.8805C219.859 65.1357 217.287 62.167 216.292 58.7451C215.094 54.6149 216.099 50.0836 218.865 47.2034C221.912 44.0316 226.922 43.2139 230.516 45.3076C232.422 46.417 233.818 48.3649 234.354 50.6514C234.859 52.8024 234.531 54.9222 233.432 56.6149C233.083 57.1461 232.375 57.3024 231.839 56.9482C231.302 56.6045 231.156 55.8909 231.5 55.3597C232.26 54.1982 232.479 52.7139 232.115 51.1826C231.724 49.5316 230.693 48.0732 229.354 47.292C226.698 45.7451 222.818 46.4066 220.526 48.7972C218.323 51.0941 217.526 54.7503 218.5 58.1045C219.318 60.917 221.458 63.3649 224.37 64.8284C227.287 66.2868 230.521 66.5368 233.255 65.5055C236.797 64.1722 239.714 60.9014 240.87 56.9482C241.943 53.2711 241.609 49.0576 239.917 45.0941C235.75 35.3389 223.641 29.7972 213.464 33.0003C203.412 36.1722 196.547 47.6514 198.479 58.0628C199.385 62.943 202.172 67.5316 206.313 70.9691C206.797 71.3753 206.865 72.0993 206.458 72.5889C206.234 72.8597 205.906 73.0055 205.578 73.0055Z" fill="#B87C4C"/>
<path d="M191.146 53.0939C190.573 53.0939 190.073 52.6564 190.005 52.0731C189.016 43.1877 195.12 33.8179 201.661 29.1616C208.297 24.4377 220.807 21.9585 228.87 25.797C229.443 26.0731 229.688 26.7606 229.417 27.3335C229.141 27.9064 228.453 28.1512 227.88 27.8752C220.661 24.4377 208.969 26.7762 202.995 31.0366C197.146 35.1981 191.406 43.896 192.292 51.8179C192.365 52.4429 191.911 53.0106 191.276 53.0835C191.234 53.0887 191.193 53.0939 191.146 53.0939Z" fill="#B87C4C"/>
<path d="M245.083 72.6667C247.625 70.0886 249.552 66.9792 250.703 63.5469C250.896 62.9532 250.469 62.2865 249.896 62.1303C249.271 61.9584 248.682 62.3438 248.484 62.9324C247.464 65.9792 245.719 68.7501 243.458 71.0417C242.417 72.0938 244.047 73.724 245.083 72.6667Z" fill="#B87C4C"/>
<path d="M168.708 73.0055C168.62 73.0055 168.536 72.995 168.448 72.9742C164.427 72.0523 161.24 70.5471 158.698 68.3752C153.635 64.0367 151.448 56.8232 153.25 50.4221C155.026 44.0211 160.635 38.9742 167.198 37.87C173.729 36.7502 180.703 39.6409 184.547 45.0627C187.016 48.5471 187.984 52.8232 187.12 56.5107C186.151 60.7294 182.703 64.1252 178.729 64.7555C174.365 65.4586 169.802 62.4586 168.974 58.344C168.542 56.1617 169.26 53.7867 170.891 52.0002C172.411 50.3284 174.427 49.5002 176.443 49.7086C177.078 49.7711 177.536 50.3388 177.469 50.9742C177.401 51.6044 176.839 52.0627 176.208 51.995C174.922 51.8596 173.615 52.4325 172.594 53.5471C171.464 54.7815 170.943 56.4482 171.229 57.8961C171.818 60.7971 175.224 62.9794 178.37 62.4846C181.437 62.0002 184.115 59.3232 184.88 55.995C185.594 52.9325 184.771 49.3492 182.667 46.3961C179.328 41.6773 173.266 39.1617 167.583 40.1357C161.969 41.0836 156.99 45.568 155.464 51.0367C153.922 56.5159 155.87 62.9221 160.193 66.6252C162.448 68.5523 165.318 69.8961 168.964 70.7346C169.583 70.8752 169.969 71.495 169.828 72.1148C169.703 72.6461 169.234 73.0055 168.708 73.0055Z" fill="#B87C4C"/>
<path d="M293.594 73.0053C293.26 73.0053 292.932 72.8595 292.708 72.5887C292.302 72.0991 292.365 71.3751 292.859 70.9689C297 67.5314 299.781 62.9428 300.693 58.0626C302.625 47.6512 295.76 36.172 285.703 33.0001C275.531 29.797 263.422 35.3387 259.25 45.0939C257.562 49.0574 257.224 53.2709 258.302 56.948C259.453 60.9012 262.37 64.172 265.911 65.5053C268.646 66.5314 271.885 66.2866 274.797 64.8282C277.713 63.3647 279.854 60.9168 280.672 58.1043C281.646 54.7501 280.849 51.0939 278.641 48.797C276.349 46.4064 272.469 45.7449 269.812 47.2918C268.479 48.073 267.448 49.5314 267.052 51.1824C266.693 52.7137 266.911 54.198 267.667 55.3595C268.016 55.8907 267.865 56.6043 267.328 56.948C266.797 57.297 266.088 57.1459 265.74 56.6147C264.635 54.922 264.307 52.8022 264.818 50.6512C265.354 48.3647 266.755 46.4168 268.651 45.3074C272.25 43.2137 277.26 44.0314 280.302 47.2032C283.062 50.0834 284.078 54.6147 282.875 58.7449C281.88 62.1668 279.312 65.1355 275.828 66.8803C272.344 68.6251 268.437 68.9116 265.104 67.6564C260.901 66.0834 257.448 62.2293 256.094 57.5991C254.865 53.4064 255.24 48.6459 257.135 44.1876C261.75 33.3959 275.151 27.2709 286.396 30.8022C297.693 34.3699 305.125 46.7866 302.958 58.4845C301.943 63.896 298.88 68.9532 294.328 72.7397C294.115 72.9168 293.854 73.0053 293.594 73.0053Z" fill="#B87C4C"/>
<path d="M308.021 53.0939C307.979 53.0939 307.932 53.0887 307.891 53.0835C307.26 53.0106 306.807 52.4429 306.88 51.8179C307.76 43.896 302.026 35.1981 296.177 31.0366C290.198 26.7762 278.51 24.4377 271.286 27.8752C270.714 28.1512 270.031 27.9012 269.755 27.3335C269.479 26.7606 269.729 26.0731 270.302 25.797C278.359 21.9585 290.875 24.4377 297.51 29.1616C304.052 33.8179 310.156 43.1877 309.161 52.0731C309.099 52.6564 308.599 53.0939 308.021 53.0939Z" fill="#B87C4C"/>
<path d="M248.484 63.5471C249.464 66.9637 251.599 70.1564 254.078 72.6669C255.12 73.7242 256.75 72.0939 255.708 71.0419C253.5 68.8023 251.573 65.9742 250.703 62.9325C250.526 62.3335 249.891 61.9637 249.286 62.1304C248.693 62.2919 248.307 62.9429 248.484 63.5471Z" fill="#B87C4C"/>
<path d="M330.458 73.0055C329.938 73.0055 329.464 72.6461 329.344 72.1148C329.203 71.495 329.589 70.8752 330.203 70.7346C333.854 69.8961 336.719 68.5523 338.974 66.6252C343.302 62.9221 345.245 56.5159 343.708 51.0419C342.177 45.568 337.203 41.0836 331.589 40.1357C325.901 39.1617 319.844 41.6773 316.5 46.3961C314.401 49.3492 313.578 52.9325 314.292 55.9846C315.052 59.3232 317.734 62.0002 320.802 62.4846C323.948 62.9846 327.349 60.7971 327.943 57.8909C328.224 56.4482 327.708 54.7815 326.573 53.5471C325.552 52.4325 324.245 51.8648 322.964 51.995C322.333 52.0627 321.766 51.6044 321.703 50.9742C321.63 50.3388 322.089 49.7711 322.724 49.7086C324.734 49.5002 326.76 50.3336 328.276 52.0002C329.911 53.7867 330.625 56.1617 330.193 58.3388C329.359 62.4586 324.802 65.4638 320.438 64.7555C316.469 64.1252 313.016 60.7294 312.052 56.5055C311.188 52.8232 312.151 48.5471 314.625 45.0627C318.464 39.6409 325.443 36.7502 331.974 37.87C338.531 38.9742 344.135 44.0211 345.917 50.4221C347.724 56.8232 345.531 64.0367 340.469 68.37C337.927 70.5471 334.734 72.0523 330.719 72.9742C330.635 72.995 330.547 73.0055 330.458 73.0055Z" fill="#B87C4C"/>
<path d="M351.453 72.1617C352.193 67.0211 353.469 61.6513 356.865 57.5679C359.719 54.1461 364.208 51.6148 368.776 52.4742C373.031 53.2763 376.552 56.7815 375.995 61.3283C375.74 63.4273 374.573 65.2971 372.677 66.2867C370.771 67.2763 368.302 67.2086 366.578 65.8388C364.896 64.5002 364.38 61.8075 365.797 60.0783C367.026 58.5836 369.724 58.6304 370.787 60.2971C371.578 61.5367 373.568 60.3856 372.771 59.1304C371.443 57.0471 368.75 56.2033 366.417 56.9898C363.943 57.8231 362.516 60.37 362.698 62.9273C362.901 65.7138 364.755 67.9065 367.354 68.8231C370.198 69.8336 373.432 69.0158 375.625 66.995C379.755 63.1877 378.922 56.1929 374.76 52.7867C370.12 48.9846 363.594 49.3752 358.807 52.6981C352.609 56.995 350.255 64.4221 349.24 71.5523C349.151 72.1721 349.391 72.7763 350.042 72.9638C350.583 73.1148 351.37 72.7763 351.453 72.1617Z" fill="#B87C4C"/>
<path d="M354.974 42.9899C355.552 41.7034 356.427 40.0316 358.01 39.8961C359.552 39.7764 359.99 41.2816 359.505 42.5211C358.896 44.0941 357.427 45.443 356.271 46.6305C354.938 47.9899 353.5 49.2555 351.974 50.3961C352.552 50.7295 353.13 51.0576 353.703 51.3857C353.438 48.5264 353.818 45.6253 354.974 42.9899C355.224 42.417 355.141 41.7503 354.563 41.4118C354.073 41.1253 353.234 41.2503 352.99 41.8232C351.667 44.8441 351.099 48.1045 351.406 51.3857C351.474 52.1514 352.365 52.9586 353.13 52.3805C354.677 51.2295 356.151 49.9899 357.516 48.6357C358.797 47.3649 360.135 46.0003 361.083 44.4586C362.01 42.9586 362.396 40.9951 361.474 39.3961C360.573 37.8441 358.688 37.3076 357.016 37.7555C355.042 38.2816 353.787 40.0524 352.99 41.8232C352.729 42.3909 352.823 43.0576 353.401 43.4014C353.891 43.6826 354.719 43.5576 354.974 42.9899Z" fill="#B87C4C"/>
<path d="M128.38 60.2968C129.302 58.8489 131.547 58.5937 132.885 59.6041C134.391 60.7447 134.531 63.1093 133.625 64.651C132.568 66.4479 130.271 67.2239 128.271 66.8906C126.073 66.5208 124.229 64.9218 123.521 62.8229C122.083 58.5624 124.682 54.3281 128.776 52.9062C133.167 51.3802 137.828 53.0885 141.062 56.2239C145.354 60.401 146.896 66.427 147.714 72.1614C147.922 73.6197 150.135 72.9999 149.932 71.552C149.026 65.1927 147.109 58.4999 142.135 54.0885C137.766 50.2135 131.422 48.6249 126.12 51.5989C121.339 54.2812 119.13 60.6718 122.266 65.4635C123.849 67.8749 126.714 69.427 129.62 69.2499C132.396 69.0781 135.042 67.5156 136.062 64.8489C137.062 62.2239 136.245 58.776 133.656 57.3802C131.187 56.052 127.922 56.7343 126.401 59.1302C125.599 60.3854 127.589 61.5364 128.38 60.2968Z" fill="#B87C4C"/>
<path d="M147.193 50.396C145.578 49.1929 144.073 47.844 142.677 46.396C141.969 45.6669 141.276 44.9065 140.641 44.1148C140.135 43.469 139.615 42.719 139.484 41.896C139.391 41.2815 139.505 40.5419 140.031 40.1565C140.563 39.771 141.354 39.8387 141.927 40.0992C143.5 40.8127 144.255 42.9325 144.745 44.4377C145.469 46.6929 145.682 49.0315 145.469 51.3856C145.406 52.0054 146.037 52.5419 146.615 52.5419C147.281 52.5419 147.703 52.0106 147.766 51.3856C148.005 48.8179 147.734 46.1825 146.922 43.7242C146.224 41.594 145.109 39.0262 142.927 38.0419C140.74 37.0523 138.005 37.8283 137.318 40.3075C136.641 42.7554 138.234 44.8648 139.745 46.5992C141.625 48.7554 143.74 50.6721 146.037 52.3804C146.537 52.7554 147.318 52.4637 147.609 51.969C147.948 51.3804 147.693 50.7658 147.193 50.396Z" fill="#B87C4C"/>
<path d="M249.583 27.1929C246.896 27.1929 245.542 29.547 245.542 34.1825C245.542 38.2658 248.135 43.2918 249.583 45.7762C251.031 43.2866 253.63 38.2606 253.63 34.1825C253.63 29.547 252.271 27.1929 249.583 27.1929ZM249.583 49.1252C249.203 49.1252 248.844 48.9325 248.63 48.6147C248.406 48.2866 243.24 40.5158 243.24 34.1825C243.24 26.0991 247.213 24.896 249.583 24.896C251.958 24.896 255.932 26.0991 255.932 34.1825C255.932 40.5158 250.76 48.2866 250.542 48.6147C250.323 48.9325 249.969 49.1252 249.583 49.1252Z" fill="#B87C4C"/>
<path d="M205.578 73.0055C205.318 73.0055 205.057 72.917 204.839 72.7399C200.287 68.9534 197.224 63.8961 196.214 58.4847C194.047 46.7868 201.479 34.3701 212.776 30.8076C224.021 27.2659 237.422 33.3961 242.031 44.1878C243.932 48.6461 244.302 53.4066 243.073 57.5993C241.724 62.2295 238.266 66.0836 234.068 67.6566C230.734 68.9118 226.828 68.6305 223.339 66.8805C219.859 65.1357 217.287 62.167 216.292 58.7451C215.094 54.6149 216.099 50.0836 218.865 47.2034C221.912 44.0316 226.922 43.2139 230.516 45.3076C232.422 46.417 233.818 48.3649 234.354 50.6514C234.859 52.8024 234.531 54.9222 233.432 56.6149C233.083 57.1461 232.375 57.3024 231.839 56.9482C231.302 56.6045 231.156 55.8909 231.5 55.3597C232.26 54.1982 232.479 52.7139 232.115 51.1826C231.724 49.5316 230.693 48.0732 229.354 47.292C226.698 45.7451 222.818 46.4066 220.526 48.7972C218.323 51.0941 217.526 54.7503 218.5 58.1045C219.318 60.917 221.458 63.3649 224.37 64.8284C227.287 66.2868 230.521 66.5368 233.255 65.5055C236.797 64.1722 239.714 60.9014 240.87 56.9482C241.943 53.2711 241.609 49.0576 239.917 45.0941C235.75 35.3389 223.641 29.7972 213.464 33.0003C203.412 36.1722 196.547 47.6514 198.479 58.0628C199.385 62.943 202.172 67.5316 206.313 70.9691C206.797 71.3753 206.865 72.0993 206.458 72.5889C206.234 72.8597 205.906 73.0055 205.578 73.0055Z" fill="#B87C4C"/>
<path d="M191.146 53.0939C190.573 53.0939 190.073 52.6564 190.005 52.0731C189.016 43.1877 195.12 33.8179 201.661 29.1616C208.297 24.4377 220.807 21.9585 228.87 25.797C229.443 26.0731 229.688 26.7606 229.417 27.3335C229.141 27.9064 228.453 28.1512 227.88 27.8752C220.661 24.4377 208.969 26.7762 202.995 31.0366C197.146 35.1981 191.406 43.896 192.292 51.8179C192.365 52.4429 191.911 53.0106 191.276 53.0835C191.234 53.0887 191.193 53.0939 191.146 53.0939Z" fill="#B87C4C"/>
<path d="M168.708 73.0055C168.62 73.0055 168.536 72.995 168.448 72.9742C164.427 72.0523 161.24 70.5471 158.698 68.3752C153.635 64.0367 151.448 56.8232 153.25 50.4221C155.026 44.0211 160.635 38.9742 167.198 37.87C173.729 36.7502 180.703 39.6409 184.547 45.0627C187.016 48.5471 187.984 52.8232 187.12 56.5107C186.151 60.7294 182.703 64.1252 178.729 64.7555C174.365 65.4586 169.802 62.4586 168.974 58.344C168.542 56.1617 169.26 53.7867 170.891 52.0002C172.411 50.3284 174.427 49.5002 176.443 49.7086C177.078 49.7711 177.536 50.3388 177.469 50.9742C177.401 51.6044 176.839 52.0627 176.208 51.995C174.922 51.8596 173.615 52.4325 172.594 53.5471C171.464 54.7815 170.943 56.4482 171.229 57.8961C171.818 60.7971 175.224 62.9794 178.37 62.4846C181.437 62.0002 184.115 59.3232 184.88 55.995C185.594 52.9325 184.771 49.3492 182.667 46.3961C179.328 41.6773 173.266 39.1617 167.583 40.1357C161.969 41.0836 156.99 45.568 155.464 51.0367C153.922 56.5159 155.87 62.9221 160.193 66.6252C162.448 68.5523 165.318 69.8961 168.964 70.7346C169.583 70.8752 169.969 71.495 169.828 72.1148C169.703 72.6461 169.234 73.0055 168.708 73.0055Z" fill="#B87C4C"/>
<path d="M293.594 73.0053C293.26 73.0053 292.932 72.8595 292.708 72.5887C292.302 72.0991 292.365 71.3751 292.859 70.9689C297 67.5314 299.781 62.9428 300.693 58.0626C302.625 47.6512 295.76 36.172 285.703 33.0001C275.531 29.797 263.422 35.3387 259.25 45.0939C257.562 49.0574 257.224 53.2709 258.302 56.948C259.453 60.9012 262.37 64.172 265.911 65.5053C268.646 66.5314 271.885 66.2866 274.797 64.8282C277.713 63.3647 279.854 60.9168 280.672 58.1043C281.646 54.7501 280.849 51.0939 278.641 48.797C276.349 46.4064 272.469 45.7449 269.812 47.2918C268.479 48.073 267.448 49.5314 267.052 51.1824C266.693 52.7137 266.911 54.198 267.667 55.3595C268.016 55.8907 267.865 56.6043 267.328 56.948C266.797 57.297 266.088 57.1459 265.74 56.6147C264.635 54.922 264.307 52.8022 264.818 50.6512C265.354 48.3647 266.755 46.4168 268.651 45.3074C272.25 43.2137 277.26 44.0314 280.302 47.2032C283.062 50.0834 284.078 54.6147 282.875 58.7449C281.88 62.1668 279.312 65.1355 275.828 66.8803C272.344 68.6251 268.437 68.9116 265.104 67.6564C260.901 66.0834 257.448 62.2293 256.094 57.5991C254.865 53.4064 255.24 48.6459 257.135 44.1876C261.75 33.3959 275.151 27.2709 286.396 30.8022C297.693 34.3699 305.125 46.7866 302.958 58.4845C301.943 63.896 298.88 68.9532 294.328 72.7397C294.115 72.9168 293.854 73.0053 293.594 73.0053Z" fill="#B87C4C"/>
<path d="M308.021 53.0939C307.979 53.0939 307.932 53.0887 307.891 53.0835C307.26 53.0106 306.807 52.4429 306.88 51.8179C307.76 43.896 302.026 35.1981 296.177 31.0366C290.198 26.7762 278.51 24.4377 271.286 27.8752C270.714 28.1512 270.031 27.9012 269.755 27.3335C269.479 26.7606 269.729 26.0731 270.302 25.797C278.359 21.9585 290.875 24.4377 297.51 29.1616C304.052 33.8179 310.156 43.1877 309.161 52.0731C309.099 52.6564 308.599 53.0939 308.021 53.0939Z" fill="#B87C4C"/>
<path d="M330.458 73.0055C329.938 73.0055 329.464 72.6461 329.344 72.1148C329.203 71.495 329.589 70.8752 330.203 70.7346C333.854 69.8961 336.719 68.5523 338.974 66.6252C343.302 62.9221 345.245 56.5159 343.708 51.0419C342.177 45.568 337.203 41.0836 331.589 40.1357C325.901 39.1617 319.844 41.6773 316.5 46.3961C314.401 49.3492 313.578 52.9325 314.292 55.9846C315.052 59.3232 317.734 62.0002 320.802 62.4846C323.948 62.9846 327.349 60.7971 327.943 57.8909C328.224 56.4482 327.708 54.7815 326.573 53.5471C325.552 52.4325 324.245 51.8648 322.964 51.995C322.333 52.0627 321.766 51.6044 321.703 50.9742C321.63 50.3388 322.089 49.7711 322.724 49.7086C324.734 49.5002 326.76 50.3336 328.276 52.0002C329.911 53.7867 330.625 56.1617 330.193 58.3388C329.359 62.4586 324.802 65.4638 320.438 64.7555C316.469 64.1252 313.016 60.7294 312.052 56.5055C311.188 52.8232 312.151 48.5471 314.625 45.0627C318.464 39.6409 325.443 36.7502 331.974 37.87C338.531 38.9742 344.135 44.0211 345.917 50.4221C347.724 56.8232 345.531 64.0367 340.469 68.37C337.927 70.5471 334.734 72.0523 330.719 72.9742C330.635 72.995 330.547 73.0055 330.458 73.0055Z" fill="#B87C4C"/>
<path d="M351.453 72.1617C352.193 67.0211 353.469 61.6513 356.865 57.5679C359.719 54.1461 364.208 51.6148 368.776 52.4742C373.031 53.2763 376.552 56.7815 375.995 61.3283C375.74 63.4273 374.573 65.2971 372.677 66.2867C370.771 67.2763 368.302 67.2086 366.578 65.8388C364.896 64.5002 364.38 61.8075 365.797 60.0783C367.026 58.5836 369.724 58.6304 370.787 60.2971C371.578 61.5367 373.568 60.3856 372.771 59.1304C371.443 57.0471 368.75 56.2033 366.417 56.9898C363.943 57.8231 362.516 60.37 362.698 62.9273C362.901 65.7138 364.755 67.9065 367.354 68.8231C370.198 69.8336 373.432 69.0158 375.625 66.995C379.755 63.1877 378.922 56.1929 374.76 52.7867C370.12 48.9846 363.594 49.3752 358.807 52.6981C352.609 56.995 350.255 64.4221 349.24 71.5523C349.151 72.1721 349.391 72.7763 350.042 72.9638C350.583 73.1148 351.37 72.7763 351.453 72.1617Z" fill="#B87C4C"/>
<path d="M354.974 42.9899C355.552 41.7034 356.427 40.0316 358.01 39.8961C359.552 39.7764 359.99 41.2816 359.505 42.5211C358.896 44.0941 357.427 45.443 356.271 46.6305C354.938 47.9899 353.5 49.2555 351.974 50.3961C352.552 50.7295 353.13 51.0576 353.703 51.3857C353.438 48.5264 353.818 45.6253 354.974 42.9899C355.224 42.417 355.141 41.7503 354.563 41.4118C354.073 41.1253 353.234 41.2503 352.99 41.8232C351.667 44.8441 351.099 48.1045 351.406 51.3857C351.474 52.1514 352.365 52.9586 353.13 52.3805C354.677 51.2295 356.151 49.9899 357.516 48.6357C358.797 47.3649 360.135 46.0003 361.083 44.4586C362.01 42.9586 362.396 40.9951 361.474 39.3961C360.573 37.8441 358.688 37.3076 357.016 37.7555C355.042 38.2816 353.787 40.0524 352.99 41.8232C352.729 42.3909 352.823 43.0576 353.401 43.4014C353.891 43.6826 354.719 43.5576 354.974 42.9899Z" fill="#B87C4C"/>
<path d="M128.38 60.2968C129.302 58.8489 131.547 58.5937 132.885 59.6041C134.391 60.7447 134.531 63.1093 133.625 64.651C132.568 66.4479 130.271 67.2239 128.271 66.8906C126.073 66.5208 124.229 64.9218 123.521 62.8229C122.083 58.5624 124.682 54.3281 128.776 52.9062C133.167 51.3802 137.828 53.0885 141.062 56.2239C145.354 60.401 146.896 66.427 147.714 72.1614C147.922 73.6197 150.135 72.9999 149.932 71.552C149.026 65.1927 147.109 58.4999 142.135 54.0885C137.766 50.2135 131.422 48.6249 126.12 51.5989C121.339 54.2812 119.13 60.6718 122.266 65.4635C123.849 67.8749 126.714 69.427 129.62 69.2499C132.396 69.0781 135.042 67.5156 136.062 64.8489C137.062 62.2239 136.245 58.776 133.656 57.3802C131.187 56.052 127.922 56.7343 126.401 59.1302C125.599 60.3854 127.589 61.5364 128.38 60.2968Z" fill="#B87C4C"/>
<path d="M147.193 50.396C145.578 49.1929 144.073 47.844 142.677 46.396C141.969 45.6669 141.276 44.9065 140.641 44.1148C140.135 43.469 139.615 42.719 139.484 41.896C139.391 41.2815 139.505 40.5419 140.031 40.1565C140.563 39.771 141.354 39.8387 141.927 40.0992C143.5 40.8127 144.255 42.9325 144.745 44.4377C145.469 46.6929 145.682 49.0315 145.469 51.3856C145.406 52.0054 146.037 52.5419 146.615 52.5419C147.281 52.5419 147.703 52.0106 147.766 51.3856C148.005 48.8179 147.734 46.1825 146.922 43.7242C146.224 41.594 145.109 39.0262 142.927 38.0419C140.74 37.0523 138.005 37.8283 137.318 40.3075C136.641 42.7554 138.234 44.8648 139.745 46.5992C141.625 48.7554 143.74 50.6721 146.037 52.3804C146.537 52.7554 147.318 52.4637 147.609 51.969C147.948 51.3804 147.693 50.7658 147.193 50.396Z" fill="#B87C4C"/>
<path d="M500 71.771C500 74.6668 497.651 77.021 494.75 77.021C491.849 77.021 489.5 74.6668 489.5 71.771C489.5 68.8752 491.849 66.521 494.75 66.521C497.651 66.521 500 68.8752 500 71.771Z" fill="#B87C4C"/>
<path d="M10.4844 71.9531C10.4844 74.849 8.13021 77.1979 5.23438 77.1979C2.33854 77.1979 -0.015625 74.849 -0.015625 71.9531C-0.015625 69.0521 2.33854 66.7031 5.23438 66.7031C8.13021 66.7031 10.4844 69.0521 10.4844 71.9531Z" fill="#B87C4C"/>
</g>
<defs>
<clipPath id="clip0_10_184">
<rect width="500" height="135" fill="white"/>
</clipPath>
</defs>
</svg>
